<svg xmlns="http://www.w3.org/2000/svg" width="189.851" height="67.735" viewBox="0 0 189.851 67.735">
  <path id="Tracé_3" data-name="Tracé 3" d="M337.68,248.93h6.946V222.381H337.68Zm-109.76-7.178a4.355,4.355,0,0,0-5.981.582,4.245,4.245,0,0,0,6.51,5.45,4.345,4.345,0,0,0-.529-6.032m-8.811-22.7a2.843,2.843,0,1,0-3.66-4.351,2.862,2.862,0,0,0-.327,3.963,2.9,2.9,0,0,0,3.987.388m5.9,16.577a4.271,4.271,0,1,0-4.292,4.281,4.342,4.342,0,0,0,4.292-4.281m14.417-.1a6.041,6.041,0,1,0-6.071,6.056,6.142,6.142,0,0,0,6.071-6.056m59.588-26.977h-7.734l-5.506,7.96h6.895Zm41.338,8.466a4.363,4.363,0,0,0,4.976-3.467,4.249,4.249,0,1,0-4.976,3.467m-106,10.524a4.363,4.363,0,0,0,4.972-3.473,4.249,4.249,0,1,0-4.972,3.473m147.385,21.9a13.91,13.91,0,0,0,12.5-7.1l-5.711-2.573a7.642,7.642,0,0,1-13.84-1.646h20.477c1.441-8.85-4.785-16.259-13.686-16.259a13.6,13.6,0,0,0-13.943,13.789c0,7.821,6.123,13.789,14.2,13.789m-.257-21.61a6.872,6.872,0,0,1,6.74,4.991H374.8a6.992,6.992,0,0,1,6.689-4.991M236.756,214.06a2.909,2.909,0,0,0,3.315-2.315,2.833,2.833,0,1,0-3.315,2.315m-28.328,18.782a2.826,2.826,0,1,0,0,5.652,2.826,2.826,0,1,0,0-5.652m126.415,2.814c0-7.821-4.836-13.789-11.422-13.789-4.734,0-8.232,3.241-9.776,8.129v-7.615H306.7v36.839h6.946V241.315c1.544,4.888,5.042,8.129,9.776,8.129,6.586,0,11.422-5.968,11.422-13.789m-21.2,0a7.126,7.126,0,0,1,7.255-7.409c3.756,0,6.74,3.19,6.74,7.409,0,4.271-2.984,7.461-6.74,7.461a7.139,7.139,0,0,1-7.255-7.461m52.774,13.275v-6.123h-3.139c-2.572,0-3.756-1.183-3.756-3.756V228.5h6.894v-6.123h-6.894V212.4l-6.946,2.161v7.821h-5.351V228.5h5.351V238.64c0,6.894,3.4,10.29,10.7,10.29Zm-129.55,8.136a2.84,2.84,0,1,0,3.315,2.315,2.891,2.891,0,0,0-3.315-2.315m24.921-35.2c-4.734,0-8.232,3.241-9.776,8.129v-7.615h-6.946v36.839h6.946V241.315c1.544,4.888,5.042,8.129,9.776,8.129,6.586,0,11.422-5.968,11.422-13.789s-4.836-13.789-11.422-13.789m-2.521,21.249a7.437,7.437,0,0,1,0-14.87c3.756,0,6.74,3.19,6.74,7.409,0,4.271-2.984,7.461-6.74,7.461m30.518-21.249a13.6,13.6,0,0,0-13.943,13.789c0,7.821,6.123,13.789,14.2,13.789a13.91,13.91,0,0,0,12.5-7.1l-5.711-2.573A7.642,7.642,0,0,1,283,238.125h20.478c1.441-8.85-4.785-16.259-13.686-16.259M283.1,232.826a6.992,6.992,0,0,1,6.689-4.991,6.872,6.872,0,0,1,6.74,4.991Zm93.989,33.352a3.561,3.561,0,0,1,1.709.419,3.457,3.457,0,0,1,1.3,1.256l2.173-1.268a4.7,4.7,0,0,0-2.026-2.083,6.524,6.524,0,0,0-3.135-.724,7.072,7.072,0,0,0-3.384.792,5.863,5.863,0,0,0-2.32,2.2,6.523,6.523,0,0,0,0,6.4,5.816,5.816,0,0,0,2.332,2.207,7.083,7.083,0,0,0,3.373.792,6.388,6.388,0,0,0,3.113-.736,4.9,4.9,0,0,0,2.049-2.094l-2.173-1.268a3.452,3.452,0,0,1-1.3,1.256,3.816,3.816,0,0,1-4.346-.611,4.17,4.17,0,0,1,.011-5.5,3.58,3.58,0,0,1,2.626-1.03m18.359,3.848a6.661,6.661,0,0,0-.781-3.271,5.534,5.534,0,0,0-2.173-2.2,6.345,6.345,0,0,0-3.158-.781,6.509,6.509,0,0,0-3.215.792,5.7,5.7,0,0,0-2.23,2.207,6.325,6.325,0,0,0-.8,3.181,6.23,6.23,0,0,0,.826,3.2,5.7,5.7,0,0,0,2.343,2.207,8.162,8.162,0,0,0,6.316.294,5.11,5.11,0,0,0,2.06-1.471l-1.517-1.743a4.407,4.407,0,0,1-3.283,1.313,4.267,4.267,0,0,1-2.615-.781,3.287,3.287,0,0,1-1.3-2.117H395.4q.045-.543.045-.837m-9.553-1.041a3.38,3.38,0,0,1,1.143-2.139,3.414,3.414,0,0,1,2.3-.8,3.374,3.374,0,0,1,2.309.815,3.337,3.337,0,0,1,1.109,2.128Zm-22.637-5.207a6.359,6.359,0,0,0-2.4.43,4.424,4.424,0,0,0-1.766,1.268v-1.562H356.4V276h2.83v-6.112a3.744,3.744,0,0,1,.905-2.705,3.267,3.267,0,0,1,2.468-.94,2.763,2.763,0,0,1,2.128.8,3.4,3.4,0,0,1,.747,2.388V276h2.83v-6.927a5.27,5.27,0,0,0-1.381-3.962,5.052,5.052,0,0,0-3.667-1.336m-11.443,1.279a5.9,5.9,0,0,0-4.086-1.279,10.174,10.174,0,0,0-2.83.385,6.872,6.872,0,0,0-2.286,1.109l1.109,2.06a4.933,4.933,0,0,1,1.664-.883,6.51,6.51,0,0,1,2-.317,3.282,3.282,0,0,1,2.253.679,2.478,2.478,0,0,1,.758,1.947v.181h-3.124a6.013,6.013,0,0,0-3.814.985,3.2,3.2,0,0,0-1.211,2.615,3.271,3.271,0,0,0,.555,1.868,3.668,3.668,0,0,0,1.573,1.29,5.689,5.689,0,0,0,2.377.464,5.8,5.8,0,0,0,2.32-.419,3.29,3.29,0,0,0,1.483-1.211V276h2.671v-7.086a4.946,4.946,0,0,0-1.415-3.86m-1.415,7.165a2.649,2.649,0,0,1-1.166,1.392,3.654,3.654,0,0,1-1.89.486,2.8,2.8,0,0,1-1.7-.453,1.442,1.442,0,0,1-.611-1.222q0-1.607,2.445-1.607h2.92ZM320.764,276h2.943v-6.067h7.652v-2.49h-7.652v-4.822h8.625v-2.468H320.764Zm16.164-10.323v-1.766h-2.694V276h2.83V270.14a3.836,3.836,0,0,1,.928-2.773,3.418,3.418,0,0,1,2.581-.962,3.609,3.609,0,0,1,.657.068v-2.694q-3.079,0-4.3,1.9" transform="translate(-205.595 -208.427)" fill="#5956e1"/>
</svg>
